<svg xmlns="http://www.w3.org/2000/svg" viewBox="0 0 24 24"><path fill="currentColor" d="m7.5 9l.775-1.725L10 6.5l-1.725-.775L7.5 4l-.775 1.725L5 6.5l1.725.775L7.5 9Zm9-2q.625 0 1.063-.438T18 5.5q0-.625-.438-1.063T16.5 4q-.625 0-1.063.438T15 5.5q0 .625.438 1.063T16.5 7ZM5 23v-2.1q0-.875.488-1.625t1.287-1.125q1.225-.575 2.55-.863T12 17q1.35 0 2.675.288t2.55.862q.8.375 1.288 1.125T19 20.9V23H5Zm7-7q-1.45 0-2.475-1.025T8.5 12.5q0-1.45 1.025-2.475T12 9q1.45 0 2.475 1.025T15.5 12.5q0 1.45-1.025 2.475T12 16Zm-8-2q-.825 0-1.413-.588T2 12V3q0-.825.588-1.413T4 1h16q.825 0 1.413.588T22 3v9q0 .825-.588 1.413T20 14h-3.225q.15-.5.2-1t0-1q-.2-1.9-1.613-3.2T12 7.5q-1.95 0-3.363 1.3T7.025 12q-.05.5 0 1t.2 1H4Z"/></svg>